<svg width="40" height="37" viewBox="0 0 40 37" fill="none" xmlns="http://www.w3.org/2000/svg">
<path d="M38.3107 29.4864C39.4068 27.445 39.9865 25.1682 39.9998 22.8532C40.013 20.5381 39.4593 18.2548 38.3867 16.2012C37.3141 14.1475 35.7549 12.3855 33.8444 11.0678C31.9338 9.75009 29.7295 8.91653 27.4225 8.63934C26.6646 6.87253 25.5554 5.27691 24.1619 3.94864C22.7683 2.62037 21.1193 1.58696 19.3141 0.910701C17.5089 0.234438 15.585 -0.0706771 13.6583 0.013746C11.7315 0.0981692 9.84193 0.570383 8.10331 1.40192C6.36469 2.23347 4.81307 3.40712 3.54197 4.85214C2.27086 6.29717 1.3066 7.98364 0.707284 9.80992C0.107973 11.6362 -0.113972 13.5645 0.0548245 15.4785C0.223622 17.3925 0.779666 19.2527 1.68944 20.9469L0.585056 24.7985C0.462508 25.2256 0.456831 25.6776 0.568614 26.1076C0.680396 26.5376 0.905571 26.93 1.2208 27.2441C1.53603 27.5582 1.92984 27.7826 2.36143 27.8941C2.79301 28.0055 3.24666 27.9999 3.67535 27.8779L7.54184 26.7774C9.10646 27.6118 10.8137 28.1478 12.5758 28.3579C13.3548 30.1734 14.5042 31.8076 15.9511 33.1568C17.398 34.506 19.1107 35.5407 20.9805 36.1951C22.8503 36.8495 24.8362 37.1094 26.8122 36.9582C28.7881 36.807 30.711 36.248 32.4585 35.3168L36.3248 36.4175C36.7535 36.5395 37.2071 36.545 37.6387 36.4336C38.0702 36.3222 38.464 36.0978 38.7793 35.7837C39.0945 35.4696 39.3197 35.0773 39.4315 34.6473C39.5434 34.2173 39.5378 33.7654 39.4153 33.3383L38.3107 29.4864ZM35.5451 28.5777C35.4456 28.7444 35.3814 28.9296 35.3563 29.1219C35.3312 29.3143 35.3459 29.5097 35.3993 29.6962L36.4915 33.5045L32.669 32.4165C32.4818 32.3632 32.2857 32.3486 32.0927 32.3736C31.8996 32.3986 31.7138 32.4626 31.5465 32.5617C30.239 33.3337 28.7902 33.8382 27.2848 34.0459C25.7794 34.2535 24.2475 34.1601 22.7788 33.771C21.31 33.382 19.9338 32.7052 18.7306 31.7801C17.5275 30.855 16.5215 29.7003 15.7715 28.3834C17.7283 28.1816 19.6221 27.5789 21.3339 26.6131C23.0457 25.6473 24.5386 24.3393 25.7188 22.7712C26.8989 21.2031 27.7409 19.4088 28.1917 17.501C28.6425 15.5932 28.6925 13.6132 28.3385 11.6853C30.084 12.096 31.7079 12.9101 33.0791 14.0618C34.4504 15.2135 35.5304 16.6704 36.2319 18.3148C36.9335 19.9593 37.2368 21.745 37.1175 23.5279C36.9982 25.3107 36.4596 27.0406 35.5451 28.5777V28.5777Z" fill="#B50000" fill-opacity="0.65"/>
</svg>
