<svg width="35" height="38" viewBox="0 0 35 38" fill="none" xmlns="http://www.w3.org/2000/svg">
<path d="M16.6869 0C18.3132 0 19.6317 1.34314 19.6317 3C19.6317 4.65686 18.3132 6 16.6869 6H6.87108C6.32897 6 5.8895 6.44772 5.8895 7V31C5.8895 31.5522 6.32897 32 6.87108 32H15.7053C17.3316 32 18.6501 33.3432 18.6501 35C18.6501 36.6568 17.3316 38 15.7053 38H6.87108C3.07628 38 0 34.866 0 31V7C0 3.134 3.07628 0 6.87108 0H16.6869ZM28.5849 11.2218L34.1375 16.8786C35.2875 18.0502 35.2875 19.9498 34.1375 21.1214L28.5849 26.7782C27.4348 27.9498 25.5704 27.9498 24.4204 26.7782C23.2704 25.6066 23.2704 23.7072 24.4204 22.5356L24.9459 22H16.6869C15.0606 22 13.7422 20.6568 13.7422 19C13.7422 17.3432 15.0606 16 16.6869 16H24.9459L24.4204 15.4644C23.2704 14.2929 23.2704 12.3934 24.4204 11.2218C25.5704 10.0503 27.4348 10.0503 28.5849 11.2218Z" fill="#B50000" fill-opacity="0.65"/>
</svg>
