<svg width="41" height="41" viewBox="0 0 41 41" fill="inherit" xmlns="http://www.w3.org/2000/svg">
  <g clip-path="url(#clip0_43_74)">
    <path fill-rule="evenodd" clip-rule="evenodd"
      d="M30.3997 5.68804C27.4694 3.73005 24.0243 2.68498 20.5 2.68498C15.7757 2.6903 11.2465 4.56938 7.90591 7.90995C4.56534 11.2505 2.68626 15.7797 2.68094 20.504C2.68094 24.0283 3.72603 27.4734 5.68401 30.4038C5.83885 30.6355 5.99885 30.8632 6.16383 31.0867C9.14024 28.8686 12.586 27.385 16.2187 26.7406C15.3178 26.2932 14.4904 25.7007 13.7716 24.9819C12.4668 23.6771 11.5782 22.0147 11.2182 20.2049C10.8583 18.3951 11.043 16.5192 11.7491 14.8144C12.4553 13.1096 13.6511 11.6525 15.1854 10.6273C16.7196 9.60213 18.5234 9.05495 20.3687 9.05495C22.8431 9.05495 25.2161 10.0379 26.9658 11.7876C28.7155 13.5373 29.6985 15.9103 29.6985 18.3847C29.6985 20.23 29.1513 22.0338 28.1261 23.5681C27.2195 24.9249 25.9751 26.0171 24.5203 26.7399C28.2267 27.3967 31.7333 28.9262 34.7439 31.2106C36.3438 29.082 37.453 26.6128 37.9766 23.9803C38.6642 20.5238 38.3113 16.941 36.9627 13.685C35.614 10.429 33.3301 7.64602 30.3997 5.68804ZM32.9702 33.2324C29.4137 30.5839 25.095 29.1116 20.6235 29.0579C16.0437 29.0029 11.5886 30.4393 7.91873 33.1227C9.56158 34.7606 11.5168 36.0702 13.6809 36.9667C16.9369 38.3154 20.5198 38.6682 23.9763 37.9807C27.3732 37.305 30.4981 35.6543 32.9702 33.2324ZM9.11082 3.4589C12.482 1.20633 16.4455 0.00401306 20.5 0.00401306C25.937 0.00401306 31.1512 2.16383 34.9957 6.00833C38.8402 9.85282 41 15.0671 41 20.504C41 24.5585 39.7977 28.522 37.5451 31.8932C35.2925 35.2644 32.0909 37.8919 28.345 39.4435C24.5991 40.9951 20.4773 41.4011 16.5007 40.6101C12.524 39.8191 8.8713 37.8667 6.00433 34.9997C3.13735 32.1327 1.18492 28.48 0.393918 24.5034C-0.397079 20.5268 0.00886208 16.4049 1.56046 12.659C3.11206 8.91313 5.73961 5.71147 9.11082 3.4589Z"
      fill="inherit" fill-opacity="0.65" />
  </g>
  <defs>
    <clipPath id="clip0_43_74">
      <rect width="41" height="41" fill="white" />
    </clipPath>
  </defs>
</svg>