<svg width="42" height="43" viewBox="0 0 42 43" fill="inherit" xmlns="http://www.w3.org/2000/svg">
  <path
    d="M37.0455 23.607C37.1318 22.919 37.1966 22.231 37.1966 21.5C37.1966 20.769 37.1318 20.081 37.0455 19.393L41.6008 15.8455C42.011 15.523 42.1189 14.9425 41.8599 14.4695L37.542 7.0305C37.283 6.5575 36.7001 6.3855 36.2251 6.5575L30.8494 8.7075C29.7268 7.8475 28.5178 7.138 27.2008 6.6005L26.3805 0.903C26.3157 0.387 25.8623 0 25.3226 0H16.6869C16.1472 0 15.6938 0.387 15.6291 0.903L14.8087 6.6005C13.4918 7.138 12.2828 7.869 11.1601 8.7075L5.78444 6.5575C5.28789 6.364 4.72657 6.5575 4.4675 7.0305L0.149681 14.4695C-0.130978 14.9425 -0.00144281 15.523 0.40875 15.8455L4.96405 19.393C4.8777 20.081 4.81293 20.7905 4.81293 21.5C4.81293 22.2095 4.8777 22.919 4.96405 23.607L0.40875 27.1545C-0.00144281 27.477 -0.109389 28.0575 0.149681 28.5305L4.4675 35.9695C4.72657 36.4425 5.30948 36.6145 5.78444 36.4425L11.1601 34.2925C12.2828 35.1525 13.4918 35.862 14.8087 36.3995L15.6291 42.097C15.6938 42.613 16.1472 43 16.6869 43H25.3226C25.8623 43 26.3157 42.613 26.3805 42.097L27.2008 36.3995C28.5178 35.862 29.7268 35.131 30.8494 34.2925L36.2251 36.4425C36.7216 36.636 37.283 36.4425 37.542 35.9695L41.8599 28.5305C42.1189 28.0575 42.011 27.477 41.6008 27.1545L37.0455 23.607V23.607ZM21.0048 29.025C16.8381 29.025 13.4486 25.6495 13.4486 21.5C13.4486 17.3505 16.8381 13.975 21.0048 13.975C25.1715 13.975 28.561 17.3505 28.561 21.5C28.561 25.6495 25.1715 29.025 21.0048 29.025Z"
    fill="inherit" fill-opacity="0.65" />
</svg>