<svg width="54" height="64" viewBox="0 0 54 64" fill="none" xmlns="http://www.w3.org/2000/svg">
<path fill-rule="evenodd" clip-rule="evenodd" d="M17.0776 57.3121L3.47191 64L9.27345 49.2536L9.48976 49.4348C7.73756 46.2875 6.73506 42.6374 6.73506 38.7454C6.73506 35.9219 7.26293 33.2261 8.22156 30.7568L0 22.4096L2.80157 0L7.25924 16.1586L16.2812 20.682C19.5141 18.533 23.3613 17.2861 27.4899 17.2861C31.4379 17.2861 35.1285 18.4263 38.2708 20.4052L46.7408 16.1586L51.1984 0L54 22.4096L46.4711 30.0537C47.611 32.7109 48.2447 35.6516 48.2447 38.7454C48.2447 44.6709 45.9216 50.0357 42.1656 53.9192C38.4095 57.8027 33.2209 60.2046 27.4899 60.2046C23.6952 60.2046 20.1385 59.1511 17.0776 57.3121ZM12.3064 33.4175H42.6735C41.8749 30.9836 40.5443 28.8034 38.8249 27.0256C35.9242 24.0267 31.9166 22.1714 27.4899 22.1714C23.0633 22.1714 19.0555 24.0267 16.1548 27.0256C14.4355 28.8034 13.105 30.9834 12.3064 33.4175ZM42.2916 45.1186H12.6883C13.5004 47.1328 14.6856 48.9458 16.1548 50.4651C19.0555 53.4643 23.0633 55.3194 27.4899 55.3194C31.9166 55.3194 35.9242 53.4643 38.8249 50.4651C40.2943 48.9458 41.4795 47.1328 42.2916 45.1186ZM29.6162 40.7088L39.2932 42.942L43.373 36.4952V36.4951L43.8724 35.7061L29.6162 40.7088ZM25.3638 40.7088L15.6867 42.942L11.6068 36.4949L11.1075 35.7061L25.3638 40.7088Z" fill="#B50000" fill-opacity="0.65"></path>
<path d="M27.9479 50.6708L36.5743 46.5775L34.8864 52.7291L27.9479 50.6708Z" fill="#B50000" fill-opacity="0.65"></path>
</svg>
