<svg width="1280" height="720" viewBox="0 0 1280 720" fill="none" xmlns="http://www.w3.org/2000/svg">
<g opacity="0.2">
<path d="M153.799 643.277C96.118 691.521 76.1627 784.811 76.1627 784.811C45.1036 646.497 158.236 553.208 187.088 501.765C215.94 450.3 198.192 398.836 198.192 398.836C253.643 482.463 218.147 588.614 218.147 588.614C233.665 530.707 253.643 504.963 313.532 408.475C373.442 311.987 304.658 212.278 304.658 212.278C475.471 295.906 487.904 555.527 487.904 555.527C485.674 539.424 476.98 460.503 516.688 366.966C550.315 287.708 572.815 250.094 577.252 156.827C581.689 63.5371 530.945 0 530.945 0C719.507 109.349 709.304 420.232 709.304 420.232C731.151 207.211 883.676 106.15 883.676 106.15C814.891 196.22 879.239 347.393 879.239 347.393C883.676 244.464 928.046 212.301 928.046 212.301C879.059 293.586 924.848 377.529 973.362 447.598C1026.2 523.905 1025.64 572.555 1025.64 572.555C1003.45 459.985 1078.88 398.858 1078.88 398.858C1058.93 450.323 1085.55 498.567 1152.1 588.636C1218.66 678.683 1174.29 781.612 1174.29 781.612C1174.29 781.612 1156.54 743.008 1114.4 723.728C1114.4 723.728 1112.37 744.112 1118.32 768.594C1118.32 768.594 1103.43 759.968 1096.47 741.251C1096.47 741.251 1087.53 749.9 1091.52 775.801C1091.52 775.801 1062.73 751.319 1058.77 711.026C1058.77 711.026 1025.01 778.662 988.273 794.518C988.273 794.518 908.857 757.085 890.005 692.331C890.005 692.331 893.451 714.787 874.239 745.486C859.644 768.819 866.176 790.216 866.176 790.216C866.176 790.216 840.365 765.756 834.419 712.49C834.419 712.49 836.401 744.179 795.702 762.873C754.98 781.59 738.133 781.59 735.138 804.608C735.138 804.608 703.38 758.549 702.389 686.588C702.389 686.588 706.353 728.301 692.457 764.315C692.457 764.315 682.524 791.658 682.524 806.05C682.524 806.05 638.852 767.198 625.947 718.255C625.947 718.255 625.947 747.04 590.203 762.873C554.459 778.707 537.589 791.657 531.621 813.257C531.621 813.257 507.792 793.076 501.846 751.364C501.846 751.364 500.201 787.581 478.016 804.608C461.124 817.559 448.219 820.442 448.219 820.442C448.219 820.442 460.133 788.775 454.187 761.432C454.187 761.432 426.394 775.824 418.443 808.933C418.443 808.933 409.502 800.284 403.556 770.058C403.556 770.058 403.578 783.031 393.623 801.725C393.623 801.725 374.749 777.265 380.717 731.206C380.717 731.206 359.861 774.382 366.821 817.581C366.821 817.581 321.144 775.846 335.063 683.705C335.063 683.705 325.131 761.432 298.329 794.54C271.504 827.649 260.603 817.559 260.603 817.559C260.603 817.559 261.594 794.54 273.508 758.526C273.508 758.526 252.652 797.401 247.697 842.019C247.697 842.019 201.052 801.725 207.989 703.841C207.989 703.841 199.048 757.085 183.169 784.45C167.29 811.793 171.254 820.419 171.254 820.419C171.254 820.419 162.335 808.91 164.317 762.851C164.317 762.851 154.385 797.378 135.533 806.027C135.533 806.027 155.376 739.81 154.385 673.592L153.799 643.277Z" fill="url(#paint0_linear_44_143)"/>
<path d="M75.7798 783.121C75.96 783.774 76.0501 784.27 76.1402 784.81C76.1402 784.81 96.0954 691.543 153.777 643.276L154.295 673.525C154.835 707.76 149.768 741.837 144.812 766.792C145.961 765.643 147.02 764.36 148.078 763.053C152.515 747.625 156.772 731.409 159.272 719.043C166.097 684.809 171.592 610.461 171.592 610.461C171.592 610.461 143.979 631.947 129.722 648.276C115.443 664.741 96.2531 701.813 96.2531 701.813C96.2531 690.62 99.1811 677.624 99.6315 675.687C80.7573 712.106 76.6807 762.017 75.7798 783.121Z" fill="url(#paint1_linear_44_143)"/>
<path d="M220.264 581.113C219.634 583.163 219.116 585.1 218.575 587.172C218.913 585.888 219.544 583.816 220.264 581.113ZM439.164 474.084C439.164 481.81 438.894 489.648 438.286 497.891C432.408 576.361 401.731 626.159 382.384 656.249C381.213 658.074 380.064 659.876 378.916 661.542C381.145 656.137 399.862 611.496 412.362 563.365C412.362 563.365 420.088 534.423 420.088 492.733C420.088 443.205 409.254 376.042 361.776 318.023C361.776 318.023 362.226 322.415 362.226 329.983C362.226 352.258 358.487 402.439 329.118 450.548C326.978 454.016 324.771 457.372 322.451 460.593C303.014 488.251 277.991 508.837 255.986 542.036C239.116 567.509 224.048 600.325 214.363 649.718C214.363 649.718 205.76 618.839 205.76 568.275C205.76 563.523 205.85 558.5 206.007 553.342C206.007 553.342 206.998 519.108 215.422 491.337C215.422 491.337 209.476 506.134 196.165 526.067C188.259 538.027 177.606 551.923 164.115 565.572C145.218 584.739 123.641 603.906 105.465 630.033C94.4514 645.574 84.6089 663.592 77.2439 685.484C98.528 600.573 165.714 539.716 187.021 501.742C214.881 452.079 199.25 402.416 198.192 398.948C243.621 467.53 227.922 551.022 220.827 578.951C236.008 527.621 257.044 499.445 313.464 408.475C372.024 314.036 307.518 216.647 304.68 212.391C445.674 281.468 478.692 470.345 485.877 534.04C486.418 544.333 487.296 551.653 487.836 555.527H487.566C484.638 541.495 460.246 427.755 416.687 358.812C419.187 364.06 439.164 408.588 439.164 474.084Z" fill="url(#paint2_linear_44_143)"/>
<path d="M138.258 795.711C136.749 801.365 135.691 804.968 135.511 805.869C154.317 797.13 164.25 762.783 164.25 762.783C162.561 801.905 168.777 816.05 170.646 819.383C168.89 807.288 166.66 782.468 172.606 753.256C180.939 711.836 179.52 696.138 179.52 696.138C179.52 696.138 173.304 732.422 148.101 763.031C144.655 775.013 141.096 786.59 138.258 795.711Z" fill="url(#paint3_linear_44_143)"/>
<path d="M285.738 717.242C285.738 717.242 238.8 756.094 247.314 841.636C247.404 841.771 247.674 841.884 247.674 841.884C252.652 797.243 273.486 758.391 273.486 758.391C261.526 794.428 260.535 817.446 260.535 817.446C260.535 817.446 260.625 817.446 260.715 817.581C262.044 817.063 263.373 816.298 264.972 815.397C272.067 797.784 283.508 763.189 285.738 717.242Z" fill="url(#paint4_linear_44_143)"/>
<path d="M334.455 687.399C322.293 776.95 366.753 817.469 366.753 817.469C366.663 816.816 366.663 816.32 366.595 815.667C351.595 786.184 321.324 701.543 371.393 561.293C369.456 563.343 338.036 598.208 319.297 698.953C304.23 780.283 279.274 806.77 264.995 815.397C264.454 816.545 264.026 817.716 263.576 818.753C268.463 819.653 279.387 817.716 298.261 794.428C321.505 765.756 332.068 703.345 334.455 687.399Z" fill="url(#paint5_linear_44_143)"/>
<path d="M474.03 777.063C474.66 774.36 482.476 739.494 472.002 696.656C472.002 696.656 426.213 735.756 418.038 808.46C418.218 808.707 418.398 808.842 418.398 808.842C426.281 775.779 454.142 761.364 454.142 761.364C460.088 788.639 448.218 820.284 448.218 820.284C448.218 820.284 461.079 817.469 477.949 804.45C500.134 787.468 501.823 751.206 501.823 751.206C507.048 788.257 526.395 808.324 530.652 812.311C520.99 790.194 502.161 738.481 497.836 663.457C497.814 663.457 497.814 741.049 474.03 777.063Z" fill="url(#paint6_linear_44_143)"/>
<path d="M558.693 348.88C558.693 348.88 471.124 463.003 523.107 639.65C521.846 633.096 502.882 527.869 558.693 348.88Z" fill="url(#paint7_linear_44_143)"/>
<path d="M531.711 812.581C537.837 791.342 554.707 778.482 590.113 762.806C625.879 746.995 625.879 718.165 625.879 718.165C636.623 758.932 668.65 792.536 679.033 802.806C659.326 767.423 630.046 694.854 630.924 578.681C630.834 601.699 628.447 686.746 595.09 723.931C571.374 750.305 535.179 772.175 531.711 812.581Z" fill="url(#paint8_linear_44_143)"/>
<path d="M607.681 122.592C611.51 130.836 672.907 268.113 671.758 558.095C671.736 558.095 719.394 323.429 607.681 122.592Z" fill="url(#paint9_linear_44_143)"/>
<path d="M709.372 417.214C698.988 489.13 697.57 558.996 698.358 613.028C698.808 643.907 700.407 670.8 702.615 694.606C702.525 691.904 702.344 689.201 702.344 686.498C702.344 686.498 702.615 690.102 702.795 696.003C704.034 708.616 705.453 720.192 706.962 730.868C715.228 772.423 731.444 799.068 734.552 803.685C713.876 655.844 705.272 407.8 754.958 283.383C789.913 195.747 846.536 137.75 882.663 107.367C882.753 107.232 882.843 107.232 882.933 107.119C883.203 106.736 883.293 106.601 883.564 106.218C879.915 108.673 761.737 189.192 720.633 355.164C716.917 371.763 713.809 388.475 711.151 405.074C710.43 410.097 709.822 415.12 709.281 420.142C709.281 420.165 709.281 419.151 709.372 417.214Z" fill="url(#paint10_linear_44_143)"/>
<path d="M845.838 368.7C854.982 396.876 873.428 457.598 942.551 538.275C1024.99 634.38 1006.18 741.026 1004.31 750.553C1004.49 749.9 1004.85 748.751 1005.28 747.22C1011.49 724.449 1038.75 608.141 977.327 502.238C924.533 411.268 864.014 320.839 922.235 221.76C865.973 299.847 895.884 424.534 895.884 424.534C849.216 339.623 846.288 260.365 846.288 260.365C841.671 161.669 869.442 121.151 882.505 107.772C882.595 107.659 882.595 107.524 882.685 107.389C810.725 168.651 793.585 270.41 824.486 366.898C834.599 398.678 847.279 431.606 853.225 456.179C867.167 513.432 866.176 543.928 866.176 543.928C874.329 468.679 849.937 382.349 845.838 368.7Z" fill="url(#paint11_linear_44_143)"/>
<path d="M835.905 551.653C814.869 664.11 854.802 752.625 854.802 752.625C831.468 651.25 835.905 551.653 835.905 551.653Z" fill="url(#paint12_linear_44_143)"/>
<path d="M872.55 721.994C864.014 749.134 859.329 769.089 865.275 785.801C864.126 778.346 863.496 762.4 874.239 745.418C893.406 714.674 889.938 692.286 889.938 692.286C906.987 750.823 973.34 786.86 985.953 793.279C956.493 765.351 902.28 704.494 882.573 620.754C882.573 620.754 884.712 683.412 872.55 721.994Z" fill="url(#paint13_linear_44_143)"/>
<path d="M1077.89 399.714C1066.7 422.732 1054.83 455.3 1057.76 485.008C1063.7 546.901 1108.34 562.712 1152.08 659.088C1172.4 704.111 1175.24 748.887 1173.64 780.283C1174 781.049 1174.24 781.567 1174.24 781.567C1174.24 781.567 1218.61 678.638 1152.06 588.569C1085.5 498.499 1058.88 450.255 1078.84 398.791C1078.86 398.813 1078.5 399.061 1077.89 399.714Z" fill="url(#paint14_linear_44_143)"/>
<path d="M1082.51 659.088C1082.51 659.088 1067.24 719.674 1091.02 775.396C1091.29 775.531 1091.47 775.779 1091.47 775.779C1087.49 749.81 1096.45 741.184 1096.45 741.184C1103.39 759.968 1118.27 768.594 1118.27 768.594C1118.18 768.211 1118.18 767.963 1118.09 767.693C1109.2 756.364 1084.18 719.427 1082.51 659.088Z" fill="url(#paint15_linear_44_143)"/>
<path d="M578.04 65.2042C694.011 180.364 709.281 420.188 709.281 420.188C709.281 420.188 719.304 111.804 532.95 1.26172C630.564 135.701 584.077 268.744 584.077 268.744C628.875 171.355 580.158 69.5737 578.04 65.2042Z" fill="url(#paint16_linear_44_143)"/>
<path d="M742.863 465.819C742.863 465.819 759.665 324.127 823.788 180.229C823.788 180.229 726.061 282.055 742.863 465.819ZM553.536 623.006C559.662 576.519 576.441 563.23 576.441 563.23C571.869 647.353 555.067 702.692 555.067 702.692C642.096 589.785 625.294 448.093 625.294 448.093C617.658 507.869 603.919 536.653 603.919 536.653C625.294 448.093 613.109 326.335 613.109 326.335C599.37 476.878 565.766 492.351 565.766 492.351C559.662 450.301 570.338 403.813 570.338 403.813C582.275 367.844 524.886 483.589 553.536 623.006ZM421.394 367.664C421.394 367.664 508.85 571.023 474.21 776.883C474.187 776.883 553.536 623.006 421.394 367.664ZM371.19 560.956C313.171 734.179 366.753 817.492 366.753 817.492C323.374 723.796 415.313 624.966 420.515 503.207C425.718 381.448 362.519 319.938 362.519 319.938C362.519 319.938 429.187 387.732 371.19 560.956ZM247.63 841.929C247.63 841.929 224.836 816.996 224.836 707.782C224.836 598.569 292.383 498.162 292.383 498.162C256.008 537.081 223.98 601.091 212.719 663.863C199.994 735.013 211.007 804.451 247.63 841.929ZM860.185 409.512C856.964 399.151 855.41 393.002 855.41 393.002C856.626 398.588 858.113 403.881 860.185 409.512ZM860.185 409.512C868.946 437.598 890.411 497.576 929.33 556.676C985.773 642.421 996.111 751.612 988.25 794.451C988.25 794.451 1048.93 691.138 962.912 568.366C892.348 467.621 869.757 435.143 860.185 409.512ZM1066.43 597.6C1061.04 636.588 1038.57 741.589 1091.47 775.802C1091.47 775.802 1075.84 728.188 1083.9 644.381C1091.97 560.595 1058.39 527.464 1058.39 527.464C1058.39 527.464 1071.79 558.636 1066.43 597.6ZM995.187 788.55C1061.04 700.868 1022.51 550.753 1022.51 550.753C1022.51 550.753 1013.75 506.157 973.34 447.553C934.353 391.043 918.317 356.808 909.15 316.965C895.726 258.518 928.001 212.234 928.001 212.234C928.001 212.234 897.078 239.036 897.078 305.276C897.078 367.912 948.137 447.53 997.867 558.591C1047.6 669.696 995.187 788.55 995.187 788.55Z" fill="url(#paint17_linear_44_143)"/>
</g>
<g opacity="0.6">
<path d="M153.799 745.463C96.118 778.752 76.1627 843.078 76.1627 843.078C45.1036 747.671 158.236 683.345 187.088 647.849C215.94 612.353 198.192 576.857 198.192 576.857C253.643 634.538 218.147 707.76 218.147 707.76C233.665 667.827 253.643 650.079 313.532 583.524C373.443 516.968 304.658 448.206 304.658 448.206C475.471 505.887 487.904 684.944 487.904 684.944C485.674 673.84 476.98 619.403 516.688 554.897C550.315 500.234 572.815 474.288 577.252 409.962C581.689 345.614 530.945 301.785 530.945 301.785C719.507 377.214 709.304 591.609 709.304 591.609C731.151 444.692 883.676 374.984 883.676 374.984C814.891 437.102 879.239 541.361 879.239 541.361C883.676 470.369 928.046 448.184 928.046 448.184C879.059 504.243 924.848 562.149 973.363 610.461C1026.18 663.097 1025.62 696.656 1025.62 696.656C1003.43 619.02 1078.86 576.857 1078.86 576.857C1058.9 612.353 1085.53 645.619 1152.08 707.76C1218.64 769.878 1174.27 840.848 1174.27 840.848C1174.27 840.848 1156.52 814.226 1114.38 800.915C1114.38 800.915 1112.35 814.969 1118.3 831.861C1118.3 831.861 1103.41 825.915 1096.45 813.01C1096.45 813.01 1087.51 818.978 1091.5 836.839C1091.5 836.839 1062.71 819.969 1058.75 792.153C1058.75 792.153 1024.98 838.798 988.25 849.744C988.25 849.744 908.834 823.933 889.983 779.27C889.983 779.27 893.429 794.743 874.217 815.915C859.622 832.019 866.154 846.771 866.154 846.771C866.154 846.771 840.342 829.902 834.396 793.167C834.396 793.167 836.378 815.014 795.679 827.92C754.958 840.825 738.111 840.825 735.115 856.704C735.115 856.704 703.358 824.924 702.367 775.306C702.367 775.306 706.331 804.09 692.434 828.911C692.434 828.911 682.502 847.762 682.502 857.695C682.502 857.695 638.83 830.893 625.924 797.131C625.924 797.131 625.924 816.996 590.18 827.897C554.437 838.821 537.567 847.74 531.598 862.65C531.598 862.65 507.769 848.731 501.823 819.969C501.823 819.969 500.179 844.947 477.994 856.704C461.102 865.646 448.196 867.628 448.196 867.628C448.196 867.628 460.111 845.78 454.165 826.929C454.165 826.929 426.371 836.861 418.421 859.7C418.421 859.7 409.479 853.731 403.533 832.875C403.533 832.875 403.556 841.816 393.6 854.722C393.6 854.722 374.726 837.852 380.695 806.072C380.695 806.072 359.839 835.848 366.798 865.646C366.798 865.646 321.122 836.861 335.041 773.324C335.041 773.324 325.108 826.929 298.306 849.767C271.481 872.605 260.58 865.646 260.58 865.646C260.58 865.646 261.571 849.767 273.486 824.947C273.486 824.947 252.63 851.749 247.675 882.538C247.675 882.538 201.03 854.744 207.967 787.243C207.967 787.243 199.025 823.978 183.147 842.83C167.268 861.682 171.232 867.65 171.232 867.65C171.232 867.65 162.313 859.722 164.295 827.942C164.295 827.942 154.362 851.771 135.511 857.718C135.511 857.718 155.353 812.041 154.362 766.387L153.799 745.463Z" fill="url(#paint18_linear_44_143)"/>
<path d="M220.264 702.602C219.634 704.021 219.116 705.35 218.575 706.769C218.913 705.868 219.544 704.471 220.264 702.602ZM439.164 628.772C439.164 634.11 438.894 639.515 438.286 645.191C432.408 699.314 401.731 733.661 382.384 754.405C381.213 755.666 380.064 756.905 378.916 758.053C381.145 754.337 399.862 723.526 412.362 690.35C412.362 690.35 420.088 670.372 420.088 641.633C420.088 607.465 409.254 561.158 361.776 521.135C361.776 521.135 362.226 524.153 362.226 529.378C362.226 544.739 358.487 579.357 329.118 612.533C326.978 614.92 324.771 617.24 322.451 619.47C303.014 638.547 277.991 652.736 255.986 675.642C239.116 693.21 224.048 715.845 214.363 749.9C214.363 749.9 205.76 728.616 205.76 693.728C205.76 690.44 205.85 686.994 206.007 683.435C206.007 683.435 206.998 659.831 215.422 640.664C215.422 640.664 209.476 650.867 196.165 664.628C188.259 672.872 177.606 682.467 164.115 691.859C145.218 705.079 123.641 718.3 105.465 736.319C94.4514 747.04 84.6089 759.472 77.2439 774.563C98.528 716.003 165.714 674.02 187.021 647.849C214.881 613.591 199.25 579.357 198.192 576.947C243.621 624.245 227.922 681.836 220.827 701.093C236.008 665.687 257.044 646.25 313.464 583.523C372.024 518.387 307.518 451.224 304.68 448.296C445.674 495.932 478.692 626.204 485.877 670.147C486.418 677.241 487.296 682.286 487.836 684.967H487.566C484.638 675.304 460.246 596.857 416.687 549.289C419.187 552.892 439.164 583.591 439.164 628.772Z" fill="url(#paint19_linear_44_143)"/>
<path d="M334.455 775.892C322.293 837.649 366.753 865.6 366.753 865.6C366.663 865.15 366.663 864.812 366.595 864.362C351.595 844.023 321.324 785.644 371.393 688.931C369.456 690.35 338.036 714.404 319.297 783.865C304.23 839.947 279.274 858.235 264.995 864.181C264.454 864.97 264.026 865.781 263.576 866.501C268.463 867.109 279.387 865.78 298.261 849.722C321.505 829.947 332.068 786.883 334.455 775.892Z" fill="url(#paint20_linear_44_143)"/>
<path d="M558.693 542.419C558.693 542.419 471.124 621.137 523.107 742.963C521.846 738.436 502.882 665.867 558.693 542.419Z" fill="url(#paint21_linear_44_143)"/>
<path d="M531.711 862.222C537.837 847.582 554.707 838.708 590.113 827.875C625.879 816.973 625.879 797.086 625.879 797.086C636.623 825.194 668.65 848.37 679.033 855.465C659.326 831.05 630.046 781.027 630.924 700.89C630.834 716.769 628.447 775.419 595.09 801.072C571.374 819.293 535.179 834.361 531.711 862.222Z" fill="url(#paint22_linear_44_143)"/>
<path d="M607.681 386.336C611.51 392.011 672.907 486.698 671.758 686.701C671.736 686.701 719.394 524.874 607.681 386.336Z" fill="url(#paint23_linear_44_143)"/>
<path d="M709.372 589.537C698.988 639.132 697.57 687.331 698.358 724.584C698.808 745.891 700.407 764.427 702.615 780.846C702.525 778.977 702.344 777.13 702.344 775.261C702.344 775.261 702.615 777.738 702.795 781.815C704.034 790.531 705.453 798.504 706.962 805.869C715.228 834.541 731.444 852.897 734.552 856.095C713.876 754.134 705.272 583.05 754.958 497.261C789.913 436.832 846.536 396.808 882.663 375.862C882.753 375.772 882.843 375.772 882.933 375.682C883.203 375.412 883.293 375.322 883.564 375.051C879.915 376.74 761.737 432.282 720.633 546.766C716.917 558.207 713.809 569.739 711.151 581.181C710.43 584.649 709.822 588.118 709.281 591.564C709.281 591.586 709.281 590.888 709.372 589.537Z" fill="url(#paint24_linear_44_143)"/>
<path d="M845.838 556.091C854.982 575.528 873.428 617.398 942.551 673.052C1024.99 739.337 1006.18 812.897 1004.31 819.451C1004.49 819.001 1004.85 818.212 1005.28 817.154C1011.49 801.433 1038.75 721.229 977.327 648.187C924.533 585.438 864.014 523.072 922.235 454.738C865.973 508.59 895.884 594.583 895.884 594.583C849.216 536.023 846.288 481.36 846.288 481.36C841.671 413.296 869.442 385.345 882.505 376.11C882.595 376.02 882.595 375.93 882.685 375.84C810.725 418.093 793.585 488.274 824.486 554.807C834.599 576.722 847.279 599.447 853.225 616.385C867.167 655.867 866.176 676.904 866.176 676.904C874.329 625.034 849.937 565.505 845.838 556.091Z" fill="url(#paint25_linear_44_143)"/>
<path d="M835.905 682.264C814.869 759.833 854.802 820.87 854.802 820.87C831.468 750.959 835.905 682.264 835.905 682.264Z" fill="url(#paint26_linear_44_143)"/>
<path d="M1077.89 577.487C1066.7 593.366 1054.83 615.821 1057.76 636.317C1063.7 678.998 1108.34 689.922 1152.08 756.387C1172.4 787.446 1175.24 818.325 1173.64 839.969C1174 840.487 1174.24 840.848 1174.24 840.848C1174.24 840.848 1218.61 769.855 1152.06 707.737C1085.5 645.619 1058.88 612.353 1078.84 576.857C1078.86 576.857 1078.5 577.037 1077.89 577.487Z" fill="url(#paint27_linear_44_143)"/>
<path d="M578.04 346.763C694.011 426.179 709.281 591.587 709.281 591.587C709.281 591.587 719.304 378.881 532.95 302.663C630.564 395.39 584.077 487.148 584.077 487.148C628.875 419.985 580.158 349.781 578.04 346.763Z" fill="url(#paint28_linear_44_143)"/>
<path d="M742.863 623.074C742.863 623.074 759.665 525.347 823.788 426.111C823.788 426.111 726.061 496.337 742.863 623.074ZM553.536 731.476C559.662 699.404 576.441 690.259 576.441 690.259C571.869 748.278 555.067 786.455 555.067 786.455C642.096 708.593 625.294 610.866 625.294 610.866C617.658 652.083 603.919 671.948 603.919 671.948C625.294 610.866 613.109 526.901 613.109 526.901C599.37 630.731 565.766 641.407 565.766 641.407C559.662 612.398 570.338 580.348 570.338 580.348C582.275 555.505 524.886 635.326 553.536 731.476ZM421.394 555.37C421.394 555.37 508.85 695.62 474.21 837.604C474.187 837.604 553.536 731.476 421.394 555.37ZM371.19 688.683C313.171 808.144 366.753 865.6 366.753 865.6C323.374 800.982 415.313 732.828 420.515 648.84C425.718 564.852 362.519 522.441 362.519 522.441C362.519 522.441 429.187 569.221 371.19 688.683ZM247.63 882.47C247.63 882.47 224.836 865.262 224.836 789.946C224.836 714.629 292.383 645.371 292.383 645.371C256.008 672.219 223.98 716.363 212.719 759.652C199.994 808.73 211.007 856.636 247.63 882.47ZM860.185 584.222C856.964 577.082 855.41 572.848 855.41 572.848C856.626 576.699 858.113 580.37 860.185 584.222ZM860.185 584.222C868.946 603.591 890.411 644.966 929.33 685.732C985.773 744.877 996.111 820.171 988.25 849.722C988.25 849.722 1048.93 778.459 962.912 693.796C892.348 624.312 869.757 601.902 860.185 584.222ZM1066.43 713.953C1061.04 740.846 1038.57 813.257 1091.47 836.861C1091.47 836.861 1075.84 804.023 1083.9 746.229C1091.97 688.435 1058.39 665.597 1058.39 665.597C1058.39 665.597 1071.79 687.084 1066.43 713.953ZM995.187 845.667C1061.04 785.193 1022.51 681.656 1022.51 681.656C1022.51 681.656 1013.75 650.889 973.34 610.483C934.353 571.519 918.317 547.892 909.15 520.414C895.726 480.098 928.001 448.183 928.001 448.183C928.001 448.183 897.078 466.675 897.078 512.351C897.078 555.55 948.137 610.461 997.867 687.061C1047.6 763.684 995.187 845.667 995.187 845.667Z" fill="url(#paint29_linear_44_143)"/>
</g>
<path d="M1226 841.388C1264.16 863.393 1277.35 905.939 1277.35 905.939C1297.89 842.852 1223.07 800.307 1204 776.838C1184.92 753.369 1196.65 729.878 1196.65 729.878C1159.99 768.031 1183.46 816.456 1183.46 816.456C1173.19 790.036 1159.99 778.302 1120.37 734.292C1080.75 690.282 1126.23 644.786 1126.23 644.786C1013.25 682.94 1005.03 801.365 1005.03 801.365C1006.49 794.023 1012.26 758.031 985.998 715.35C963.745 679.201 948.88 662.039 945.952 619.493C943.024 576.947 976.583 547.96 976.583 547.96C851.874 597.848 858.631 739.653 858.631 739.653C844.194 642.489 743.291 596.384 743.291 596.384C788.765 637.466 746.219 706.431 746.219 706.431C743.291 659.471 713.944 644.809 713.944 644.809C746.354 681.881 716.061 720.17 683.966 752.13C649.01 786.928 649.393 809.136 649.393 809.136C664.078 757.783 614.19 729.9 614.19 729.9C627.388 753.369 609.775 775.374 565.765 816.478C521.756 857.56 551.103 904.498 551.103 904.498C551.103 904.498 562.837 886.885 590.721 878.078C590.721 878.078 592.072 887.38 588.131 898.529C588.131 898.529 597.973 894.588 602.568 886.051C602.568 886.051 608.469 889.993 605.856 901.817C605.856 901.817 624.888 890.646 627.523 872.267C627.523 872.267 649.843 903.124 674.146 910.354C674.146 910.354 726.669 893.281 739.147 863.731C739.147 863.731 736.872 873.979 749.575 887.966C759.237 898.619 754.913 908.372 754.913 908.372C754.913 908.372 771.985 897.2 775.927 872.921C775.927 872.921 774.62 887.38 801.535 895.916C828.473 904.453 839.621 904.453 841.581 914.948C841.581 914.948 862.595 893.934 863.248 861.118C863.248 861.118 860.635 880.15 869.825 896.57C869.825 896.57 876.401 909.047 876.401 915.601C876.401 915.601 905.298 897.876 913.812 875.556C913.812 875.556 913.812 888.687 937.438 895.916C961.087 903.146 972.236 909.047 976.178 918.89C976.178 918.89 991.944 909.7 995.863 890.669C995.863 890.669 996.944 907.2 1011.63 914.948C1022.8 920.849 1031.34 922.178 1031.34 922.178C1031.34 922.178 1023.45 907.741 1027.39 895.263C1027.39 895.263 1045.77 901.84 1051.02 916.93C1051.02 916.93 1056.92 912.989 1060.86 899.182C1060.86 899.182 1060.86 905.106 1067.42 913.619C1067.42 913.619 1079.9 902.471 1075.95 881.457C1075.95 881.457 1089.74 901.164 1085.14 920.849C1085.14 920.849 1115.35 901.817 1106.16 859.79C1106.16 859.79 1112.71 895.241 1130.44 910.354C1148.16 925.444 1155.39 920.849 1155.39 920.849C1155.39 920.849 1154.74 910.354 1146.86 893.934C1146.86 893.934 1160.66 911.66 1163.93 932.021C1163.93 932.021 1194.78 913.642 1190.19 869.002C1190.19 869.002 1196.09 893.281 1206.61 905.781C1217.11 918.259 1214.49 922.201 1214.49 922.201C1214.49 922.201 1220.39 916.953 1219.09 895.939C1219.09 895.939 1225.64 911.682 1238.12 915.647C1238.12 915.647 1224.99 885.443 1225.64 855.24L1226 841.388Z" fill="url(#paint30_linear_44_143)"/>
<path d="M1183.16 815.802C1182.8 814.856 1182.46 813.978 1182.04 813.032C1182.51 814.271 1182.94 815.217 1183.16 815.802ZM1052.12 711.634C1023.32 743.098 1007.17 794.969 1005.23 801.365H1005.05C1005.41 799.608 1006 796.253 1006.34 791.568C1011.09 762.513 1032.94 676.363 1126.18 644.854C1124.31 646.79 1081.63 691.228 1120.37 734.292C1157.69 775.779 1171.61 788.64 1181.63 812.041C1176.92 799.316 1166.54 761.207 1196.59 729.945C1195.89 731.544 1185.55 754.18 1203.97 776.838C1218.05 794.158 1262.49 821.906 1276.57 860.645C1271.7 850.668 1265.19 842.447 1257.89 835.352C1245.87 823.438 1231.61 814.699 1219.11 805.937C1210.19 799.721 1203.14 793.37 1197.92 787.919C1189.11 778.82 1185.19 772.063 1185.19 772.063C1190.75 784.743 1191.41 800.352 1191.41 800.352C1191.52 802.694 1191.59 804.991 1191.59 807.154C1191.59 830.217 1185.91 844.294 1185.91 844.294C1179.51 821.748 1169.54 806.793 1158.39 795.171C1143.84 780.036 1127.28 770.644 1114.42 758.031C1112.89 756.567 1111.43 755.036 1110.01 753.459C1090.59 731.522 1088.12 708.616 1088.12 698.458C1088.12 695.012 1088.41 693.007 1088.41 693.007C1057.01 719.472 1049.85 750.103 1049.85 772.716C1049.85 791.725 1054.96 804.924 1054.96 804.924C1063.23 826.861 1075.62 847.244 1077.08 849.699C1076.31 848.934 1075.55 848.123 1074.78 847.289C1061.99 833.55 1041.7 810.847 1037.8 775.058C1037.39 771.297 1037.21 767.716 1037.21 764.202C1037.28 734.337 1050.48 714.021 1052.12 711.634Z" fill="url(#paint31_linear_44_143)"/>
<path d="M958.227 707.107C958.227 707.107 1016.16 759.157 981.763 839.744C982.574 836.749 995.142 788.752 958.227 707.107Z" fill="url(#paint32_linear_44_143)"/>
<path d="M925.816 603.885C923.294 607.646 882.685 670.26 883.451 802.537C883.451 802.537 851.941 695.485 925.816 603.885Z" fill="url(#paint33_linear_44_143)"/>
<path d="M858.563 738.279C865.433 771.094 866.379 802.942 865.838 827.604C865.545 841.704 864.487 853.956 863.023 864.812C863.068 863.574 863.203 862.357 863.203 861.118C863.203 861.118 863.023 862.763 862.91 865.443C862.099 871.209 861.153 876.479 860.162 881.344C854.712 900.308 843.968 912.448 841.919 914.565C855.59 847.132 861.288 733.977 828.428 677.242C805.296 637.263 767.863 610.799 743.967 596.947C743.899 596.88 743.854 596.88 743.786 596.835C743.606 596.655 743.561 596.61 743.381 596.429C745.791 597.555 823.968 634.29 851.131 709.99C853.586 717.558 855.658 725.193 857.414 732.76C857.887 735.058 858.293 737.333 858.653 739.63C858.631 739.63 858.631 739.157 858.563 738.279Z" fill="url(#paint34_linear_44_143)"/>
<path d="M768.314 716.139C762.278 728.999 750.07 756.68 704.349 793.482C649.821 837.312 662.276 885.961 663.492 890.308C663.38 890.016 663.132 889.497 662.839 888.777C658.717 878.394 640.699 825.33 681.33 777.041C716.241 735.553 756.264 694.292 717.772 649.111C754.98 684.719 735.205 741.612 735.205 741.612C766.062 702.873 767.999 666.723 767.999 666.723C771.062 621.7 752.683 603.231 744.057 597.128C743.989 597.083 743.989 597.015 743.944 596.948C791.535 624.898 802.864 671.296 782.436 715.328C775.746 729.833 767.345 744.855 763.426 756.049C754.215 782.176 754.845 796.072 754.845 796.072C749.462 761.748 765.611 722.378 768.314 716.139Z" fill="url(#paint35_linear_44_143)"/>
<path d="M945.434 577.713C868.721 630.236 858.631 739.63 858.631 739.63C858.631 739.63 852.009 598.952 975.254 548.546C910.704 609.876 941.447 670.552 941.447 670.552C911.807 626.115 944.015 579.695 945.434 577.713Z" fill="url(#paint36_linear_44_143)"/>
<path d="M782.909 630.169C825.319 695.8 836.423 760.441 836.423 760.441C847.527 676.633 782.909 630.169 782.909 630.169ZM950.524 732.175C950.524 732.175 957.596 753.369 953.565 772.558C953.565 772.558 931.357 765.486 922.258 696.836C922.258 696.836 914.195 752.378 928.339 792.762C928.339 792.762 919.24 779.631 914.195 752.378C914.195 752.378 903.091 817.019 960.637 868.506C960.637 868.506 949.533 843.258 946.493 804.879C946.493 804.879 957.596 810.937 961.651 832.132C980.57 768.549 942.619 715.756 950.524 732.175ZM1014.11 902.335C991.201 808.437 1049.04 715.666 1049.04 715.666C961.628 832.132 1014.11 902.335 1014.11 902.335ZM1087.96 693.886C1087.96 693.886 1046.16 721.95 1049.6 777.491C1053.05 833.032 1113.86 878.123 1085.17 920.849C1085.17 920.849 1120.62 882.853 1082.24 803.843C1043.86 724.832 1087.96 693.886 1087.96 693.886ZM1187.01 850.78C1179.58 822.154 1158.39 792.942 1134.33 775.194C1134.33 775.194 1179 821.005 1179 870.803C1179 920.624 1163.93 931.998 1163.93 931.998C1188.16 914.903 1195.46 883.236 1187.01 850.78ZM761.985 727.22C761.985 727.22 760.949 730.013 758.832 734.743C760.183 732.197 761.174 729.765 761.985 727.22ZM690.88 807.221C633.987 863.213 674.123 910.354 674.123 910.354C668.92 890.804 675.767 841.006 713.088 801.906C738.831 774.946 753.021 747.581 758.809 734.765C752.503 746.454 737.548 761.274 690.88 807.221ZM627.771 788.55C627.771 788.55 605.563 803.663 610.879 841.884C616.217 880.105 605.879 901.817 605.879 901.817C640.857 886.209 625.992 838.325 622.433 820.532C618.875 802.784 627.771 788.55 627.771 788.55ZM667.749 802.784C700.633 752.13 734.417 715.801 734.417 687.242C734.417 657.016 713.966 644.809 713.966 644.809C713.966 644.809 735.318 665.913 726.421 692.58C720.363 710.756 709.754 726.364 683.966 752.153C657.254 778.865 651.465 799.226 651.465 799.226C651.465 799.226 625.992 867.695 669.528 907.696C669.528 907.651 634.866 853.438 667.749 802.784Z" fill="url(#paint37_linear_44_143)"/>
<path d="M684.484 841.388C722.637 863.393 735.836 905.939 735.836 905.939C756.377 842.852 681.556 800.307 662.479 776.838C643.402 753.369 655.136 729.878 655.136 729.878C618.469 768.031 641.938 816.456 641.938 816.456C631.667 790.036 618.469 778.302 578.851 734.292C539.233 690.282 584.707 644.786 584.707 644.786C471.732 682.94 463.511 801.365 463.511 801.365C464.975 794.023 470.741 758.031 444.48 715.35C422.227 679.201 407.362 662.039 404.434 619.493C401.506 576.947 435.065 547.96 435.065 547.96C310.356 597.848 317.113 739.653 317.113 739.653C302.675 642.489 201.773 596.384 201.773 596.384C247.247 637.466 204.701 706.431 204.701 706.431C201.773 659.471 172.425 644.809 172.425 644.809C204.836 681.881 174.543 720.17 142.448 752.13C107.492 786.928 107.875 809.136 107.875 809.136C122.56 757.783 72.6716 729.9 72.6716 729.9C85.87 753.369 68.2796 775.374 24.2473 816.478C-19.7624 857.56 9.58491 904.498 9.58491 904.498C9.58491 904.498 21.3193 886.885 49.2027 878.078C49.2027 878.078 50.5541 887.38 46.6126 898.529C46.6126 898.529 56.4551 894.588 61.0497 886.051C61.0497 886.051 66.9507 889.993 64.3381 901.817C64.3381 901.817 83.3699 890.646 86.0051 872.267C86.0051 872.267 108.325 903.124 132.628 910.354C132.628 910.354 185.151 893.281 197.629 863.731C197.629 863.731 195.354 873.979 208.057 887.966C217.719 898.619 213.395 908.372 213.395 908.372C213.395 908.372 230.467 897.2 234.409 872.921C234.409 872.921 233.102 887.38 260.017 895.916C286.954 904.453 298.103 904.453 300.063 914.948C300.063 914.948 321.077 893.934 321.73 861.118C321.73 861.118 319.117 880.15 328.306 896.57C328.306 896.57 334.883 909.047 334.883 915.601C334.883 915.601 363.78 897.876 372.294 875.556C372.294 875.556 372.294 888.687 395.92 895.916C419.569 903.146 430.718 909.047 434.66 918.89C434.66 918.89 450.426 909.7 454.345 890.669C454.345 890.669 455.426 907.2 470.111 914.948C481.282 920.849 489.818 922.178 489.818 922.178C489.818 922.178 481.935 907.741 485.877 895.263C485.877 895.263 504.255 901.84 509.503 916.93C509.503 916.93 515.404 912.989 519.346 899.182C519.346 899.182 519.346 905.106 525.9 913.619C525.9 913.619 538.378 902.471 534.436 881.457C534.436 881.457 548.22 901.164 543.625 920.849C543.625 920.849 573.829 901.817 564.639 859.79C564.639 859.79 571.193 895.241 588.919 910.354C606.667 925.444 613.874 920.849 613.874 920.849C613.874 920.849 613.221 910.354 605.338 893.934C605.338 893.934 619.145 911.66 622.411 932.021C622.411 932.021 653.267 913.642 648.672 869.002C648.672 869.002 654.573 893.281 665.091 905.781C675.587 918.259 672.974 922.201 672.974 922.201C672.974 922.201 678.875 916.953 677.569 895.939C677.569 895.939 684.123 911.682 696.601 915.647C696.601 915.647 683.47 885.443 684.123 855.24L684.484 841.388Z" fill="url(#paint38_linear_44_143)"/>
<path d="M641.645 815.802C641.285 814.856 640.947 813.978 640.519 813.032C640.992 814.271 641.42 815.217 641.645 815.802ZM510.607 711.634C481.8 743.098 465.651 794.969 463.714 801.365H463.534C463.894 799.608 464.48 796.253 464.818 791.568C469.57 762.513 491.417 676.363 584.662 644.854C582.793 646.79 540.112 691.228 578.851 734.292C616.172 775.779 630.091 788.64 640.113 812.041C635.406 799.316 625.023 761.207 655.069 729.945C654.37 731.544 644.032 754.18 662.456 776.838C676.533 794.158 720.971 821.906 735.048 860.645C730.183 850.668 723.651 842.447 716.376 835.352C704.349 823.438 690.092 814.699 677.592 805.937C668.673 799.721 661.623 793.37 656.398 787.919C647.591 778.82 643.672 772.063 643.672 772.063C649.235 784.743 649.888 800.352 649.888 800.352C650.001 802.694 650.069 804.991 650.069 807.154C650.069 830.217 644.393 844.294 644.393 844.294C637.996 821.748 628.019 806.793 616.87 795.171C602.32 780.036 585.766 770.644 572.905 758.031C571.374 756.567 569.91 755.036 568.491 753.459C549.076 731.522 546.598 708.616 546.598 698.458C546.598 695.012 546.891 693.007 546.891 693.007C515.494 719.472 508.332 750.103 508.332 772.716C508.332 791.725 513.445 804.924 513.445 804.924C521.711 826.861 534.098 847.244 535.562 849.699C534.796 848.934 534.031 848.123 533.265 847.289C520.472 833.55 500.179 810.847 496.282 775.058C495.877 771.297 495.697 767.716 495.697 764.202C495.742 734.337 508.963 714.021 510.607 711.634Z" fill="url(#paint39_linear_44_143)"/>
<path d="M416.686 707.107C416.686 707.107 474.615 759.157 440.223 839.744C441.056 836.749 453.601 788.752 416.686 707.107Z" fill="url(#paint40_linear_44_143)"/>
<path d="M384.298 603.885C381.776 607.646 341.167 670.26 341.933 802.537C341.933 802.537 310.423 695.485 384.298 603.885Z" fill="url(#paint41_linear_44_143)"/>
<path d="M317.045 738.279C323.915 771.094 324.86 802.942 324.32 827.604C324.027 841.704 322.969 853.956 321.505 864.812C321.55 863.574 321.685 862.357 321.685 861.118C321.685 861.118 321.505 862.763 321.392 865.443C320.581 871.209 319.635 876.479 318.644 881.344C313.194 900.308 302.45 912.448 300.401 914.565C314.072 847.132 319.77 733.977 286.909 677.242C263.778 637.263 226.345 610.799 202.449 596.947C202.381 596.88 202.336 596.88 202.268 596.835C202.088 596.655 202.043 596.61 201.863 596.429C204.273 597.555 282.45 634.29 309.612 709.99C312.067 717.558 314.14 725.193 315.896 732.76C316.369 735.058 316.775 737.333 317.135 739.63C317.113 739.63 317.113 739.157 317.045 738.279Z" fill="url(#paint42_linear_44_143)"/>
<path d="M226.796 716.139C220.76 728.999 208.552 756.68 162.831 793.482C108.303 837.312 120.758 885.961 121.974 890.308C121.862 890.016 121.614 889.497 121.321 888.777C117.199 878.394 99.181 825.33 139.812 777.041C174.723 735.553 214.746 694.292 176.254 649.111C213.462 684.719 193.687 741.612 193.687 741.612C224.543 702.873 226.503 666.723 226.503 666.723C229.544 621.7 211.187 603.231 202.561 597.128C202.494 597.083 202.494 597.015 202.449 596.948C250.039 624.898 261.368 671.296 240.94 715.328C234.251 729.833 225.85 744.855 221.931 756.049C212.719 782.176 213.35 796.072 213.35 796.072C207.944 761.748 224.093 722.378 226.796 716.139Z" fill="url(#paint43_linear_44_143)"/>
<path d="M403.893 577.713C327.18 630.236 317.09 739.63 317.09 739.63C317.09 739.63 310.468 598.952 433.714 548.546C369.163 609.876 399.907 670.552 399.907 670.552C370.267 626.115 402.497 579.695 403.893 577.713Z" fill="url(#paint44_linear_44_143)"/>
<path d="M241.368 630.169C283.779 695.8 294.883 760.441 294.883 760.441C306.009 676.633 241.368 630.169 241.368 630.169ZM409.006 732.175C409.006 732.175 416.078 753.369 412.047 772.558C412.047 772.558 389.839 765.486 380.74 696.836C380.74 696.836 372.677 752.378 386.821 792.762C386.821 792.762 377.722 779.631 372.677 752.378C372.677 752.378 361.573 817.019 419.119 868.506C419.119 868.506 408.015 843.258 404.974 804.879C404.974 804.879 416.078 810.937 420.132 832.132C439.052 768.549 401.101 715.756 409.006 732.175ZM472.588 902.335C449.682 808.437 507.521 715.666 507.521 715.666C420.11 832.132 472.588 902.335 472.588 902.335ZM546.441 693.886C546.441 693.886 504.638 721.95 508.084 777.491C511.53 833.032 572.342 878.123 543.648 920.849C543.648 920.849 579.099 882.853 540.72 803.843C502.341 724.832 546.441 693.886 546.441 693.886ZM645.497 850.78C638.064 822.154 616.87 792.942 592.815 775.194C592.815 775.194 637.478 821.005 637.478 870.803C637.478 920.624 622.411 931.998 622.411 931.998C646.645 914.903 653.943 883.236 645.497 850.78ZM220.444 727.22C220.444 727.22 219.408 730.013 217.291 734.743C218.665 732.197 219.656 729.765 220.444 727.22ZM149.34 807.221C92.4467 863.213 132.583 910.354 132.583 910.354C127.38 890.804 134.227 841.006 171.547 801.906C197.291 774.946 211.48 747.581 217.269 734.765C210.962 746.454 196.03 761.274 149.34 807.221ZM86.2304 788.55C86.2304 788.55 64.0228 803.663 69.3382 841.884C74.6761 880.105 64.3381 901.817 64.3381 901.817C99.3162 886.209 84.4511 838.325 80.8925 820.532C77.3564 802.784 86.2304 788.55 86.2304 788.55ZM126.231 802.784C159.115 752.13 192.899 715.801 192.899 687.242C192.899 657.016 172.448 644.809 172.448 644.809C172.448 644.809 193.8 665.913 184.903 692.58C178.845 710.756 168.236 726.364 142.448 752.153C115.735 778.865 109.947 799.226 109.947 799.226C109.947 799.226 84.4736 867.695 128.01 907.696C128.01 907.651 93.3476 853.438 126.231 802.784Z" fill="url(#paint45_linear_44_143)"/>
<path d="M1006.02 823.685C1051.63 849.992 1067.4 900.849 1067.4 900.849C1091.95 825.442 1002.51 774.585 979.714 746.544C956.921 718.481 970.953 690.417 970.953 690.417C927.123 736.004 955.187 793.888 955.187 793.888C942.912 762.311 927.123 748.279 879.78 695.688C832.437 643.074 886.785 588.726 886.785 588.726C751.76 634.313 741.94 775.869 741.94 775.869C743.697 767.085 750.566 724.067 719.192 673.075C692.615 629.876 674.822 609.357 671.331 558.501C667.817 507.644 707.953 473.004 707.953 473.004C558.896 532.622 566.982 702.107 566.982 702.107C549.707 585.979 429.142 530.865 429.142 530.865C483.512 579.965 432.655 662.376 432.655 662.376C429.142 606.249 394.074 588.726 394.074 588.726C432.791 633.029 396.596 678.818 358.24 716.994C316.46 758.594 316.91 785.126 316.91 785.126C334.456 723.751 274.837 690.44 274.837 690.44C290.626 718.503 269.567 744.81 216.976 793.91C164.363 843.01 199.431 899.115 199.431 899.115C199.431 899.115 213.463 878.056 246.774 867.56C246.774 867.56 248.373 878.664 243.666 892.02C243.666 892.02 255.445 887.313 260.941 877.11C260.941 877.11 268.013 881.817 264.86 895.939C264.86 895.939 287.608 882.605 290.761 860.623C290.761 860.623 317.451 897.493 346.483 906.142C346.483 906.142 409.254 885.736 424.164 850.42C424.164 850.42 421.439 862.65 436.619 879.385C448.151 892.11 442.993 903.777 442.993 903.777C442.993 903.777 463.399 890.443 468.107 861.389C468.107 861.389 466.552 878.664 498.715 888.867C530.9 899.07 544.234 899.07 546.599 911.615C546.599 911.615 571.712 886.502 572.5 847.267C572.5 847.267 569.369 870.015 580.361 889.632C580.361 889.632 588.221 904.543 588.221 912.381C588.221 912.381 622.749 891.187 632.952 864.519C632.952 864.519 632.952 880.218 661.195 888.844C689.439 897.47 702.795 904.543 707.502 916.3C707.502 916.3 726.332 905.308 731.039 882.56C731.039 882.56 732.345 902.313 749.868 911.592C763.202 918.664 773.427 920.219 773.427 920.219C773.427 920.219 763.99 902.966 768.697 888.056C768.697 888.056 790.679 895.894 796.941 913.957C796.941 913.957 804.013 909.25 808.72 892.763C808.72 892.763 808.72 899.835 816.558 910.038C816.558 910.038 831.469 896.705 826.761 871.592C826.761 871.592 843.248 895.128 837.752 918.687C837.752 918.687 873.857 895.939 862.865 845.713C862.865 845.713 870.703 888.078 891.897 906.142C913.091 924.183 921.718 918.687 921.718 918.687C921.718 918.687 920.93 906.142 911.515 886.502C911.515 886.502 928.002 907.696 931.921 932.021C931.921 932.021 968.791 910.038 963.318 856.681C963.318 856.681 970.39 885.714 982.935 900.624C995.48 915.534 992.35 920.241 992.35 920.241C992.35 920.241 999.399 913.957 997.845 888.844C997.845 888.844 1005.68 907.673 1020.59 912.381C1020.59 912.381 1004.89 876.276 1005.68 840.195L1006.02 823.685Z" fill="url(#paint46_linear_44_143)"/>
<path d="M954.804 793.121C954.376 791.995 953.97 790.937 953.475 789.833C954.038 791.297 954.533 792.401 954.804 793.121ZM798.179 668.615C763.742 706.205 744.462 768.211 742.142 775.869H741.917C742.345 773.752 743.043 769.765 743.471 764.157C749.169 729.427 775.251 626.452 886.694 588.794C884.464 591.113 833.45 644.2 879.757 695.687C924.375 745.283 940.997 760.643 952.979 788.617C947.371 773.391 934.961 727.873 970.862 690.485C970.029 692.376 957.664 719.449 979.691 746.522C996.516 767.22 1049.62 800.396 1066.45 846.681C1060.64 834.744 1052.85 824.924 1044.13 816.455C1029.76 802.221 1012.71 791.747 997.777 781.297C987.101 773.864 978.7 766.274 972.439 759.765C961.921 748.886 957.213 740.823 957.213 740.823C963.88 755.981 964.646 774.63 964.646 774.63C964.781 777.445 964.849 780.171 964.849 782.761C964.849 810.329 958.047 827.153 958.047 827.153C950.389 800.216 938.474 782.333 925.141 768.436C907.753 750.35 887.956 739.111 872.595 724.044C870.771 722.287 869.014 720.463 867.325 718.571C844.126 692.331 841.153 664.989 841.153 652.849C841.153 648.727 841.513 646.34 841.513 646.34C803.99 677.984 795.431 714.584 795.431 741.589C795.431 764.315 801.535 780.103 801.535 780.103C811.423 806.342 826.22 830.69 827.977 833.618C827.076 832.717 826.153 831.726 825.229 830.735C809.936 814.315 785.679 787.175 781.039 744.404C780.566 739.922 780.341 735.643 780.341 731.431C780.431 695.755 796.22 671.475 798.179 668.615Z" fill="url(#paint47_linear_44_143)"/>
<path d="M685.948 663.209C685.948 663.209 755.183 725.418 714.079 821.726C715.07 818.144 730.07 760.779 685.948 663.209Z" fill="url(#paint48_linear_44_143)"/>
<path d="M647.231 539.829C644.213 544.311 595.676 619.155 596.577 777.265C596.599 777.265 558.919 649.313 647.231 539.829Z" fill="url(#paint49_linear_44_143)"/>
<path d="M566.847 700.44C575.068 739.652 576.171 777.739 575.541 807.198C575.18 824.046 573.919 838.685 572.185 851.681C572.252 850.217 572.387 848.731 572.387 847.267C572.387 847.267 572.185 849.226 572.027 852.447C571.058 859.339 569.932 865.645 568.739 871.456C562.207 894.114 549.369 908.642 546.936 911.164C563.288 830.577 570.067 695.327 530.81 627.511C503.174 579.74 458.421 548.118 429.862 531.563C429.795 531.496 429.727 531.496 429.66 531.428C429.457 531.225 429.389 531.158 429.164 530.933C432.047 532.261 525.472 576.181 557.95 666.656C560.901 675.71 563.356 684.832 565.45 693.863C566.013 696.611 566.509 699.336 566.914 702.084C566.914 702.062 566.914 701.499 566.847 700.44Z" fill="url(#paint50_linear_44_143)"/>
<path d="M458.962 673.998C451.732 689.359 437.137 722.467 382.497 766.454C317.338 818.843 332.203 876.997 333.69 882.177C333.554 881.817 333.262 881.186 332.924 880.353C328.014 867.943 306.482 804.518 355.019 746.792C396.754 697.197 444.592 647.894 398.578 593.884C443.038 636.452 419.412 704.426 419.412 704.426C456.304 658.119 458.624 614.92 458.624 614.92C462.273 561.113 440.313 539.018 429.997 531.721C429.93 531.653 429.93 531.586 429.862 531.518C486.733 564.92 500.291 620.393 475.877 672.984C467.881 690.305 457.858 708.255 453.151 721.656C442.137 752.873 442.903 769.495 442.903 769.495C436.462 728.503 455.741 681.453 458.962 673.998Z" fill="url(#paint51_linear_44_143)"/>
<path d="M275.535 690.913C284.387 703.458 293.779 721.206 291.459 737.423C286.752 771.162 251.481 779.788 216.908 832.334C200.849 856.884 198.597 881.299 199.858 898.416C199.588 898.844 199.363 899.114 199.363 899.114C199.363 899.114 164.295 842.987 216.908 793.887C269.522 744.788 290.558 718.481 274.77 690.417C274.77 690.417 275.062 690.552 275.535 690.913Z" fill="url(#paint52_linear_44_143)"/>
<path d="M670.655 508.545C578.986 571.316 566.914 702.084 566.914 702.084C566.914 702.084 558.986 533.951 706.286 473.702C629.122 546.991 665.88 619.538 665.88 619.538C630.474 566.406 668.988 510.932 670.655 508.545Z" fill="url(#paint53_linear_44_143)"/>
<path d="M476.417 571.249C527.094 649.696 540.382 726.949 540.382 726.949C553.648 626.768 476.417 571.249 476.417 571.249ZM676.758 693.165C676.758 693.165 685.204 718.503 680.385 741.432C680.385 741.432 653.83 732.985 642.951 650.912C642.951 650.912 633.312 717.287 650.204 765.576C650.204 765.576 639.325 749.878 633.312 717.287C633.312 717.287 620.046 794.541 688.831 856.096C688.831 856.096 675.565 825.915 671.938 780.058C671.938 780.058 685.204 787.288 690.047 812.649C712.682 736.634 667.321 673.525 676.758 693.165ZM752.751 896.524C725.385 784.293 794.508 673.435 794.508 673.435C690.024 812.649 752.751 896.524 752.751 896.524ZM841.018 647.398C841.018 647.398 791.062 680.935 795.161 747.31C799.26 813.685 871.964 867.582 837.662 918.642C837.662 918.642 880.028 873.236 834.148 778.797C788.314 684.381 841.018 647.398 841.018 647.398ZM959.421 834.924C950.524 800.712 925.208 765.801 896.447 744.585C896.447 744.585 949.826 799.338 949.826 858.866C949.826 918.394 931.808 931.998 931.808 931.998C960.795 911.57 969.488 873.709 959.421 834.924ZM451.394 687.241C451.394 687.241 450.155 690.597 447.61 696.228C449.277 693.188 450.448 690.305 451.394 687.241ZM366.415 782.851C298.419 849.789 346.392 906.119 346.392 906.119C340.176 882.763 348.352 823.235 392.97 776.5C423.736 744.269 440.696 711.566 447.633 696.273C440.065 710.215 422.204 727.94 366.415 782.851ZM290.986 760.553C290.986 760.553 264.432 778.617 270.806 824.293C277.18 869.97 264.814 895.939 264.814 895.939C306.639 877.29 288.846 820.037 284.612 798.797C280.355 777.558 290.986 760.553 290.986 760.553ZM338.78 777.558C378.082 716.994 418.466 673.593 418.466 639.448C418.466 603.321 394.006 588.726 394.006 588.726C394.006 588.726 419.524 613.952 408.893 645.822C401.664 667.534 388.961 686.205 358.172 717.017C326.234 748.954 319.32 773.279 319.32 773.279C319.32 773.279 288.869 855.127 340.919 902.921C340.919 902.898 299.477 838.1 338.78 777.558Z" fill="url(#paint54_linear_44_143)"/>
<defs>
<linearGradient id="paint0_linear_44_143" x1="629.768" y1="798.015" x2="629.768" y2="180.454" gradientUnits="userSpaceOnUse">
<stop stop-color="#FDE400"/>
<stop offset="0.2403" stop-color="#F7A811"/>
<stop offset="0.4217" stop-color="#F3821D"/>
<stop offset="0.5165" stop-color="#F27321"/>
<stop offset="0.6177" stop-color="#EE6D22"/>
<stop offset="0.753" stop-color="#E45C24"/>
<stop offset="0.9069" stop-color="#D34027"/>
<stop offset="0.978" stop-color="#CA3129"/>
</linearGradient>
<linearGradient id="paint1_linear_44_143" x1="123.704" y1="790.753" x2="123.704" y2="-21.4163" gradientUnits="userSpaceOnUse">
<stop stop-color="#F8EB30"/>
<stop offset="0.5165" stop-color="#F79920"/>
<stop offset="1" stop-color="#F47F20"/>
</linearGradient>
<linearGradient id="paint2_linear_44_143" x1="282.591" y1="790.753" x2="282.591" y2="-21.385" gradientUnits="userSpaceOnUse">
<stop stop-color="#F8EB30"/>
<stop offset="0.5165" stop-color="#F79920"/>
<stop offset="1" stop-color="#F47F20"/>
</linearGradient>
<linearGradient id="paint3_linear_44_143" x1="157.559" y1="790.743" x2="157.559" y2="-21.3802" gradientUnits="userSpaceOnUse">
<stop stop-color="#F8EB30"/>
<stop offset="0.5165" stop-color="#F79920"/>
<stop offset="1" stop-color="#F47F20"/>
</linearGradient>
<linearGradient id="paint4_linear_44_143" x1="266.01" y1="790.745" x2="266.01" y2="-21.2982" gradientUnits="userSpaceOnUse">
<stop stop-color="#F8EB30"/>
<stop offset="0.5165" stop-color="#F79920"/>
<stop offset="1" stop-color="#F47F20"/>
</linearGradient>
<linearGradient id="paint5_linear_44_143" x1="317.46" y1="790.745" x2="317.46" y2="-21.3799" gradientUnits="userSpaceOnUse">
<stop stop-color="#F8EB30"/>
<stop offset="0.5165" stop-color="#F79920"/>
<stop offset="1" stop-color="#F47F20"/>
</linearGradient>
<linearGradient id="paint6_linear_44_143" x1="474.345" y1="790.74" x2="474.345" y2="-21.4114" gradientUnits="userSpaceOnUse">
<stop stop-color="#F8EB30"/>
<stop offset="0.5165" stop-color="#F79920"/>
<stop offset="1" stop-color="#F47F20"/>
</linearGradient>
<linearGradient id="paint7_linear_44_143" x1="532.655" y1="790.745" x2="532.655" y2="-21.3962" gradientUnits="userSpaceOnUse">
<stop stop-color="#F8EB30"/>
<stop offset="0.5165" stop-color="#F79920"/>
<stop offset="1" stop-color="#F47F20"/>
</linearGradient>
<linearGradient id="paint8_linear_44_143" x1="605.365" y1="790.742" x2="605.365" y2="-21.3534" gradientUnits="userSpaceOnUse">
<stop stop-color="#F8EB30"/>
<stop offset="0.5165" stop-color="#F79920"/>
<stop offset="1" stop-color="#F47F20"/>
</linearGradient>
<linearGradient id="paint9_linear_44_143" x1="644.754" y1="790.741" x2="644.754" y2="-21.3854" gradientUnits="userSpaceOnUse">
<stop stop-color="#F8EB30"/>
<stop offset="0.5165" stop-color="#F79920"/>
<stop offset="1" stop-color="#F47F20"/>
</linearGradient>
<linearGradient id="paint10_linear_44_143" x1="790.865" y1="790.742" x2="790.865" y2="-21.3873" gradientUnits="userSpaceOnUse">
<stop stop-color="#F8EB30"/>
<stop offset="0.5165" stop-color="#F79920"/>
<stop offset="1" stop-color="#F47F20"/>
</linearGradient>
<linearGradient id="paint11_linear_44_143" x1="913.227" y1="790.752" x2="913.227" y2="-21.393" gradientUnits="userSpaceOnUse">
<stop stop-color="#F8EB30"/>
<stop offset="0.5165" stop-color="#F79920"/>
<stop offset="1" stop-color="#F47F20"/>
</linearGradient>
<linearGradient id="paint12_linear_44_143" x1="842.291" y1="790.75" x2="842.291" y2="-21.4097" gradientUnits="userSpaceOnUse">
<stop stop-color="#F8EB30"/>
<stop offset="0.5165" stop-color="#F79920"/>
<stop offset="1" stop-color="#F47F20"/>
</linearGradient>
<linearGradient id="paint13_linear_44_143" x1="924.28" y1="790.748" x2="924.28" y2="-21.3646" gradientUnits="userSpaceOnUse">
<stop stop-color="#F8EB30"/>
<stop offset="0.5165" stop-color="#F79920"/>
<stop offset="1" stop-color="#F47F20"/>
</linearGradient>
<linearGradient id="paint14_linear_44_143" x1="1123.01" y1="790.751" x2="1123.01" y2="-21.3857" gradientUnits="userSpaceOnUse">
<stop stop-color="#F8EB30"/>
<stop offset="0.5165" stop-color="#F79920"/>
<stop offset="1" stop-color="#F47F20"/>
</linearGradient>
<linearGradient id="paint15_linear_44_143" x1="1097.97" y1="790.747" x2="1097.97" y2="-21.3862" gradientUnits="userSpaceOnUse">
<stop stop-color="#F8EB30"/>
<stop offset="0.5165" stop-color="#F79920"/>
<stop offset="1" stop-color="#F47F20"/>
</linearGradient>
<linearGradient id="paint16_linear_44_143" x1="621.159" y1="785.014" x2="621.159" y2="-35.7364" gradientUnits="userSpaceOnUse">
<stop offset="0.0165" stop-color="#F9EC2A"/>
<stop offset="0.5055" stop-color="#FBD707"/>
<stop offset="1" stop-color="#FAC414"/>
</linearGradient>
<linearGradient id="paint17_linear_44_143" x1="649.55" y1="810.837" x2="649.55" y2="-4.16625" gradientUnits="userSpaceOnUse">
<stop stop-color="white"/>
<stop offset="0.3571" stop-color="#F9EC2A"/>
<stop offset="0.6484" stop-color="#FBD707"/>
<stop offset="1" stop-color="#FAC414"/>
</linearGradient>
<linearGradient id="paint18_linear_44_143" x1="629.768" y1="852.187" x2="629.768" y2="426.257" gradientUnits="userSpaceOnUse">
<stop stop-color="#FDE400"/>
<stop offset="0.2403" stop-color="#F7A811"/>
<stop offset="0.4217" stop-color="#F3821D"/>
<stop offset="0.5165" stop-color="#F27321"/>
<stop offset="0.6177" stop-color="#EE6D22"/>
<stop offset="0.753" stop-color="#E45C24"/>
<stop offset="0.9069" stop-color="#D34027"/>
<stop offset="0.978" stop-color="#CA3129"/>
</linearGradient>
<linearGradient id="paint19_linear_44_143" x1="282.591" y1="847.178" x2="282.591" y2="287.05" gradientUnits="userSpaceOnUse">
<stop stop-color="#F8EB30"/>
<stop offset="0.5165" stop-color="#F79920"/>
<stop offset="1" stop-color="#F47F20"/>
</linearGradient>
<linearGradient id="paint20_linear_44_143" x1="317.46" y1="847.173" x2="317.46" y2="287.053" gradientUnits="userSpaceOnUse">
<stop stop-color="#F8EB30"/>
<stop offset="0.5165" stop-color="#F79920"/>
<stop offset="1" stop-color="#F47F20"/>
</linearGradient>
<linearGradient id="paint21_linear_44_143" x1="532.655" y1="847.173" x2="532.655" y2="287.042" gradientUnits="userSpaceOnUse">
<stop stop-color="#F8EB30"/>
<stop offset="0.5165" stop-color="#F79920"/>
<stop offset="1" stop-color="#F47F20"/>
</linearGradient>
<linearGradient id="paint22_linear_44_143" x1="605.365" y1="847.17" x2="605.365" y2="287.072" gradientUnits="userSpaceOnUse">
<stop stop-color="#F8EB30"/>
<stop offset="0.5165" stop-color="#F79920"/>
<stop offset="1" stop-color="#F47F20"/>
</linearGradient>
<linearGradient id="paint23_linear_44_143" x1="644.754" y1="847.17" x2="644.754" y2="287.049" gradientUnits="userSpaceOnUse">
<stop stop-color="#F8EB30"/>
<stop offset="0.5165" stop-color="#F79920"/>
<stop offset="1" stop-color="#F47F20"/>
</linearGradient>
<linearGradient id="paint24_linear_44_143" x1="790.865" y1="847.17" x2="790.865" y2="287.048" gradientUnits="userSpaceOnUse">
<stop stop-color="#F8EB30"/>
<stop offset="0.5165" stop-color="#F79920"/>
<stop offset="1" stop-color="#F47F20"/>
</linearGradient>
<linearGradient id="paint25_linear_44_143" x1="913.227" y1="847.178" x2="913.227" y2="287.044" gradientUnits="userSpaceOnUse">
<stop stop-color="#F8EB30"/>
<stop offset="0.5165" stop-color="#F79920"/>
<stop offset="1" stop-color="#F47F20"/>
</linearGradient>
<linearGradient id="paint26_linear_44_143" x1="842.291" y1="847.176" x2="842.291" y2="287.032" gradientUnits="userSpaceOnUse">
<stop stop-color="#F8EB30"/>
<stop offset="0.5165" stop-color="#F79920"/>
<stop offset="1" stop-color="#F47F20"/>
</linearGradient>
<linearGradient id="paint27_linear_44_143" x1="1123.01" y1="847.176" x2="1123.01" y2="287.05" gradientUnits="userSpaceOnUse">
<stop stop-color="#F8EB30"/>
<stop offset="0.5165" stop-color="#F79920"/>
<stop offset="1" stop-color="#F47F20"/>
</linearGradient>
<linearGradient id="paint28_linear_44_143" x1="621.159" y1="843.22" x2="621.159" y2="277.152" gradientUnits="userSpaceOnUse">
<stop offset="0.0165" stop-color="#F9EC2A"/>
<stop offset="0.5055" stop-color="#FBD707"/>
<stop offset="1" stop-color="#FAC414"/>
</linearGradient>
<linearGradient id="paint29_linear_44_143" x1="649.55" y1="861.029" x2="649.55" y2="298.925" gradientUnits="userSpaceOnUse">
<stop stop-color="white"/>
<stop offset="0.3571" stop-color="#F9EC2A"/>
<stop offset="0.6484" stop-color="#FBD707"/>
<stop offset="1" stop-color="#FAC414"/>
</linearGradient>
<linearGradient id="paint30_linear_44_143" x1="911.213" y1="911.971" x2="911.213" y2="630.274" gradientUnits="userSpaceOnUse">
<stop stop-color="#FDE400"/>
<stop offset="0.2403" stop-color="#F7A811"/>
<stop offset="0.4217" stop-color="#F3821D"/>
<stop offset="0.5165" stop-color="#F27321"/>
<stop offset="0.6177" stop-color="#EE6D22"/>
<stop offset="0.753" stop-color="#E45C24"/>
<stop offset="0.9069" stop-color="#D34027"/>
<stop offset="0.978" stop-color="#CA3129"/>
</linearGradient>
<linearGradient id="paint31_linear_44_143" x1="1140.83" y1="908.658" x2="1140.83" y2="538.206" gradientUnits="userSpaceOnUse">
<stop stop-color="#F8EB30"/>
<stop offset="0.5165" stop-color="#F79920"/>
<stop offset="1" stop-color="#F47F20"/>
</linearGradient>
<linearGradient id="paint32_linear_44_143" x1="975.441" y1="908.656" x2="975.441" y2="538.2" gradientUnits="userSpaceOnUse">
<stop stop-color="#F8EB30"/>
<stop offset="0.5165" stop-color="#F79920"/>
<stop offset="1" stop-color="#F47F20"/>
</linearGradient>
<linearGradient id="paint33_linear_44_143" x1="901.303" y1="908.653" x2="901.303" y2="538.207" gradientUnits="userSpaceOnUse">
<stop stop-color="#F8EB30"/>
<stop offset="0.5165" stop-color="#F79920"/>
<stop offset="1" stop-color="#F47F20"/>
</linearGradient>
<linearGradient id="paint34_linear_44_143" x1="804.669" y1="908.654" x2="804.669" y2="538.205" gradientUnits="userSpaceOnUse">
<stop stop-color="#F8EB30"/>
<stop offset="0.5165" stop-color="#F79920"/>
<stop offset="1" stop-color="#F47F20"/>
</linearGradient>
<linearGradient id="paint35_linear_44_143" x1="723.742" y1="908.659" x2="723.742" y2="538.203" gradientUnits="userSpaceOnUse">
<stop stop-color="#F8EB30"/>
<stop offset="0.5165" stop-color="#F79920"/>
<stop offset="1" stop-color="#F47F20"/>
</linearGradient>
<linearGradient id="paint36_linear_44_143" x1="916.907" y1="906.041" x2="916.907" y2="531.661" gradientUnits="userSpaceOnUse">
<stop offset="0.0165" stop-color="#F9EC2A"/>
<stop offset="0.5055" stop-color="#FBD707"/>
<stop offset="1" stop-color="#FAC414"/>
</linearGradient>
<linearGradient id="paint37_linear_44_143" x1="898.13" y1="917.82" x2="898.13" y2="546.061" gradientUnits="userSpaceOnUse">
<stop stop-color="white"/>
<stop offset="0.3571" stop-color="#F9EC2A"/>
<stop offset="0.6484" stop-color="#FBD707"/>
<stop offset="1" stop-color="#FAC414"/>
</linearGradient>
<linearGradient id="paint38_linear_44_143" x1="369.689" y1="911.971" x2="369.689" y2="630.274" gradientUnits="userSpaceOnUse">
<stop stop-color="#FDE400"/>
<stop offset="0.2403" stop-color="#F7A811"/>
<stop offset="0.4217" stop-color="#F3821D"/>
<stop offset="0.5165" stop-color="#F27321"/>
<stop offset="0.6177" stop-color="#EE6D22"/>
<stop offset="0.753" stop-color="#E45C24"/>
<stop offset="0.9069" stop-color="#D34027"/>
<stop offset="0.978" stop-color="#CA3129"/>
</linearGradient>
<linearGradient id="paint39_linear_44_143" x1="599.302" y1="908.658" x2="599.302" y2="538.206" gradientUnits="userSpaceOnUse">
<stop stop-color="#F8EB30"/>
<stop offset="0.5165" stop-color="#F79920"/>
<stop offset="1" stop-color="#F47F20"/>
</linearGradient>
<linearGradient id="paint40_linear_44_143" x1="433.917" y1="908.656" x2="433.917" y2="538.2" gradientUnits="userSpaceOnUse">
<stop stop-color="#F8EB30"/>
<stop offset="0.5165" stop-color="#F79920"/>
<stop offset="1" stop-color="#F47F20"/>
</linearGradient>
<linearGradient id="paint41_linear_44_143" x1="359.779" y1="908.653" x2="359.779" y2="538.207" gradientUnits="userSpaceOnUse">
<stop stop-color="#F8EB30"/>
<stop offset="0.5165" stop-color="#F79920"/>
<stop offset="1" stop-color="#F47F20"/>
</linearGradient>
<linearGradient id="paint42_linear_44_143" x1="263.145" y1="908.654" x2="263.145" y2="538.205" gradientUnits="userSpaceOnUse">
<stop stop-color="#F8EB30"/>
<stop offset="0.5165" stop-color="#F79920"/>
<stop offset="1" stop-color="#F47F20"/>
</linearGradient>
<linearGradient id="paint43_linear_44_143" x1="182.218" y1="908.659" x2="182.218" y2="538.203" gradientUnits="userSpaceOnUse">
<stop stop-color="#F8EB30"/>
<stop offset="0.5165" stop-color="#F79920"/>
<stop offset="1" stop-color="#F47F20"/>
</linearGradient>
<linearGradient id="paint44_linear_44_143" x1="375.383" y1="906.041" x2="375.383" y2="531.661" gradientUnits="userSpaceOnUse">
<stop offset="0.0165" stop-color="#F9EC2A"/>
<stop offset="0.5055" stop-color="#FBD707"/>
<stop offset="1" stop-color="#FAC414"/>
</linearGradient>
<linearGradient id="paint45_linear_44_143" x1="356.606" y1="917.82" x2="356.606" y2="546.061" gradientUnits="userSpaceOnUse">
<stop stop-color="white"/>
<stop offset="0.3571" stop-color="#F9EC2A"/>
<stop offset="0.6484" stop-color="#FBD707"/>
<stop offset="1" stop-color="#FAC414"/>
</linearGradient>
<linearGradient id="paint46_linear_44_143" x1="629.768" y1="908.06" x2="629.768" y2="571.375" gradientUnits="userSpaceOnUse">
<stop stop-color="#FDE400"/>
<stop offset="0.2403" stop-color="#F7A811"/>
<stop offset="0.4217" stop-color="#F3821D"/>
<stop offset="0.5165" stop-color="#F27321"/>
<stop offset="0.6177" stop-color="#EE6D22"/>
<stop offset="0.753" stop-color="#E45C24"/>
<stop offset="0.9069" stop-color="#D34027"/>
<stop offset="0.978" stop-color="#CA3129"/>
</linearGradient>
<linearGradient id="paint47_linear_44_143" x1="904.201" y1="904.1" x2="904.201" y2="461.334" gradientUnits="userSpaceOnUse">
<stop stop-color="#F8EB30"/>
<stop offset="0.5165" stop-color="#F79920"/>
<stop offset="1" stop-color="#F47F20"/>
</linearGradient>
<linearGradient id="paint48_linear_44_143" x1="706.533" y1="904.096" x2="706.533" y2="461.33" gradientUnits="userSpaceOnUse">
<stop stop-color="#F8EB30"/>
<stop offset="0.5165" stop-color="#F79920"/>
<stop offset="1" stop-color="#F47F20"/>
</linearGradient>
<linearGradient id="paint49_linear_44_143" x1="617.922" y1="904.094" x2="617.922" y2="461.334" gradientUnits="userSpaceOnUse">
<stop stop-color="#F8EB30"/>
<stop offset="0.5165" stop-color="#F79920"/>
<stop offset="1" stop-color="#F47F20"/>
</linearGradient>
<linearGradient id="paint50_linear_44_143" x1="502.426" y1="904.095" x2="502.426" y2="461.333" gradientUnits="userSpaceOnUse">
<stop stop-color="#F8EB30"/>
<stop offset="0.5165" stop-color="#F79920"/>
<stop offset="1" stop-color="#F47F20"/>
</linearGradient>
<linearGradient id="paint51_linear_44_143" x1="405.701" y1="904.1" x2="405.701" y2="461.33" gradientUnits="userSpaceOnUse">
<stop stop-color="#F8EB30"/>
<stop offset="0.5165" stop-color="#F79920"/>
<stop offset="1" stop-color="#F47F20"/>
</linearGradient>
<linearGradient id="paint52_linear_44_143" x1="239.871" y1="904.099" x2="239.871" y2="461.335" gradientUnits="userSpaceOnUse">
<stop stop-color="#F8EB30"/>
<stop offset="0.5165" stop-color="#F79920"/>
<stop offset="1" stop-color="#F47F20"/>
</linearGradient>
<linearGradient id="paint53_linear_44_143" x1="636.573" y1="900.972" x2="636.573" y2="453.511" gradientUnits="userSpaceOnUse">
<stop offset="0.0165" stop-color="#F9EC2A"/>
<stop offset="0.5055" stop-color="#FBD707"/>
<stop offset="1" stop-color="#FAC414"/>
</linearGradient>
<linearGradient id="paint54_linear_44_143" x1="614.131" y1="915.05" x2="614.131" y2="470.723" gradientUnits="userSpaceOnUse">
<stop stop-color="white"/>
<stop offset="0.3571" stop-color="#F9EC2A"/>
<stop offset="0.6484" stop-color="#FBD707"/>
<stop offset="1" stop-color="#FAC414"/>
</linearGradient>
</defs>
</svg>
